<svg xmlns="http://www.w3.org/2000/svg" width="931" height="168" viewBox="0 0 931 168" fill="none"><path d="M192.469 95.276C192.625 123.479 210.036 141.661 252.266 141.661C293.724 141.661 311.755 123.63 311.755 95.5833V27H202.333V51.5052H283.703V95.1198C283.703 108.839 275.38 117.156 251.958 117.156C228.995 117.156 220.672 108.839 220.672 95.276H192.469Z" fill="#0C151D"></path><path d="M329.472 90.4948C329.472 120.859 350.436 141.661 394.665 141.661C439.051 141.661 460.009 120.859 460.009 90.4948V27H431.806V86.9531C431.806 106.526 420.863 116.849 394.665 116.849C368.155 116.849 357.676 106.219 357.676 86.9531V27H329.472V90.4948Z" fill="#0C151D"></path><path d="M561.416 103.443L514.718 27H478.499V139.505H506.395V60.9063L554.942 139.505H567.734L616.588 61.6771V139.505H644.327V27H608.728L561.416 103.443Z" fill="#0C151D"></path><path d="M737.254 27H709.051L651.723 139.505H681.775L693.332 116.078H753.437L764.999 139.505H795.202L737.254 27ZM742.806 94.0417H703.812L723.233 54.7396L742.806 94.0417Z" fill="#0C151D"></path><path d="M882.274 81.7135L928.201 27H892.295L860.701 66.1458L828.951 27H792.889L839.123 81.7135L791.196 139.505H827.102L860.701 97.5885L894.607 139.505H930.357L882.274 81.7135Z" fill="#0C151D"></path><path d="M140.729 45.1665L116.603 69.2962C111.935 73.961 104.532 74.2225 99.5605 70.0776C99.5544 70.0716 99.5484 70.0686 99.5424 70.0626L98.6407 69.233L75.7794 48.1992L75.7584 48.1782C72.8699 45.6985 71.0425 42.0225 71.0425 37.9168V3.9074C71.0425 1.74931 72.7918 0 74.9499 0H92.6744C94.8325 0 96.5818 1.74931 96.5818 3.9074V43.2368C96.7381 44.5413 97.0687 45.987 98.4664 46.8647C101.232 48.602 103.519 46.2065 103.519 46.2065L122.671 27.1083C124.393 25.3861 127.186 25.3861 128.908 27.1083L140.729 38.9327C142.452 40.655 142.452 43.4442 140.729 45.1665Z" fill="#FF3600"></path><path d="M26.97 122.834L51.0967 98.7038C55.7645 94.039 63.1675 93.7775 68.139 97.9224C68.145 97.9284 68.151 97.9314 68.157 97.9374L69.0587 98.767L91.92 119.801L91.941 119.822C94.8295 122.301 96.6569 125.977 96.6569 130.083V164.093C96.6569 166.251 94.9076 168 92.7495 168H75.025C72.8669 168 71.1176 166.251 71.1176 164.093V124.763C70.9613 123.459 70.6307 122.013 69.233 121.135C66.4678 119.398 64.1805 121.794 64.1805 121.794L45.0282 140.892C43.306 142.614 40.5137 142.614 38.7914 140.892L26.97 129.067C25.2478 127.345 25.2478 124.556 26.97 122.834Z" fill="#FF3600"></path><path d="M45.1665 27.2706L69.2962 51.3973C73.961 56.0651 74.2225 63.4681 70.0776 68.4395C70.0716 68.4455 70.0686 68.4515 70.0626 68.4576L69.233 69.3593L48.1992 92.2205L48.1782 92.2416C45.6985 95.1301 42.0225 96.9575 37.9168 96.9575H3.9074C1.74931 96.9575 0 95.2082 0 93.0501V75.3256C0 73.1675 1.74931 71.4182 3.9074 71.4182H43.2368C44.5413 71.2619 45.987 70.9312 46.8647 69.5336C48.602 66.7684 46.2065 64.481 46.2065 64.481L27.1083 45.3288C25.3861 43.6065 25.3861 40.8142 27.1083 39.092L38.9327 27.2706C40.655 25.5483 43.4442 25.5483 45.1665 27.2706Z" fill="#FF3600"></path><path d="M122.833 141.4L98.7038 117.273C94.039 112.605 93.7775 105.202 97.9223 100.231C97.9283 100.225 97.9313 100.219 97.9374 100.213L98.7669 99.311L119.801 76.4497L119.822 76.4287C122.301 73.5402 125.977 71.7127 130.083 71.7127H164.093C166.251 71.7127 168 73.462 168 75.6201V93.3447C168 95.5028 166.251 97.2521 164.093 97.2521H124.763C123.459 97.4084 122.013 97.739 121.135 99.1366C119.398 101.902 121.794 104.189 121.794 104.189L140.892 123.341C142.614 125.064 142.614 127.856 140.892 129.578L129.067 141.4C127.345 143.122 124.556 143.122 122.833 141.4Z" fill="#FF3600"></path></svg>